<?xml version="1.0" encoding="UTF-8"?>
<!-- Generator: Adobe Illustrator 27.0.1, SVG Export Plug-In . SVG Version: 6.00 Build 0)  -->
<svg xmlns="http://www.w3.org/2000/svg" xmlns:xlink="http://www.w3.org/1999/xlink" version="1.1" id="Layer_1" x="0px" y="0px" viewBox="0 0 1751.3 267.5" style="enable-background:new 0 0 1751.3 267.5;" xml:space="preserve">
<style type="text/css">
	.st0{fill:#FFFFFF;}
</style>
<g>
	<g>
		<path class="st0" d="M349.9,54.4h18.5l63.7,92.8l63.5-92.8h18.7v159.1H485v-94.3L436.8,189h-9.7L379,119.2v94.3h-29.1V54.4z"></path>
		<path class="st0" d="M663.6,177.3h-56.4L594,213.5h-31.2l61.6-159.1H647l60.9,159.1h-31.2L663.6,177.3z M615.7,150.8h39.4    l-19.6-54.5L615.7,150.8z"></path>
		<path class="st0" d="M958,54.4v159.1h-29.5V54.4H958z"></path>
		<path class="st0" d="M1009.1,134c0-48.5,37.5-82.5,84-82.5c26.7,0,50.8,11.4,64.6,26.7l-19.6,20.7c-11.4-11.6-27.3-18.9-45-18.9    c-30.8,0-53.8,22.8-53.8,53.8c0,30.4,22.4,53.8,53.4,53.8c17.4,0,34.2-7.8,44.6-18.3v-24.1h-46.1v-25.8h73.2v64.4    c-19.6,20.7-44.8,32.1-72.6,32.1C1043.8,215.9,1009.1,181.2,1009.1,134z"></path>
		<path class="st0" d="M1211.9,134.5c0-46.3,36.4-82.9,82.7-82.9c46.3,0,82.7,36.8,82.7,82.5c0,45.4-36,82-83.1,82    C1247,216.1,1211.9,180.1,1211.9,134.5z M1346.7,134c0-31-23.5-53.4-52.1-53.4c-29.1,0-52.1,22.8-52.1,53.4    c0,30.4,22.6,53.2,52.1,53.2C1323.9,187.2,1346.9,164.6,1346.7,134z"></path>
		<path class="st0" d="M1424.1,54.4h29.5v130.9h81.8v28.2h-111.3V54.4z"></path>
		<path class="st0" d="M1567.9,54.4h61.4c47.4,0,75.8,30.8,75.8,79.9c0,48.7-28.9,79.2-77.1,79.2h-60.1L1567.9,54.4z M1629,185.3    c29.9,0,45.4-23.3,45.4-51.7c0-28-15.5-51-45.2-51h-32.1v102.7H1629z"></path>
		<path class="st0" d="M844.9,170.2c-4.6-7.9-7.2-12.5-11-19.2c1.3-0.3,1.9-0.6,1.9-0.6c23.3-7.5,33.4-26.9,33.4-46.3    c0-25.8-17-49.7-53.4-49.7h-59.2v159.1h29.3v-59.7c0,0,9.7,0,15.7,0c6.6,11.2,11.4,19.7,18.7,32.2c12.4,21.3,26.7,28.2,52.3,28.2    v-28.7C863.1,185.6,851.9,182.4,844.9,170.2z M785.8,81.7h29.9c15.3,0,23.3,10.6,23.3,22.6c0,11.6-7.3,23-26.5,23h-26.7V81.7z"></path>
	</g>
	<g>
		<path class="st0" d="M265.1,117.6c-5.4-17.7-25.3-26.5-42.1-18.7l-1.8,0.9c-1,0.5-2.3,0-2.7-1.1l0,0c-0.4-1.2,0.2-2.5,1.4-3    l1.5-0.5c17.4-6.3,25.3-26.6,16.6-43l0,0c-5.1-9.7-13-17.6-22.7-22.7l0,0c-16.4-8.7-36.7-0.9-43,16.6l-0.6,1.7    c-0.4,1.1-1.7,1.7-2.8,1.2h-0.1c-1.1-0.5-1.6-1.7-1.1-2.8l0.8-1.7c7.9-16.8-0.9-36.7-18.7-42.1l0,0c-10.5-3.2-21.7-3.2-32.1,0l0,0    C100,7.8,91.2,27.7,99,44.5l0.8,1.6c0.5,1.1,0,2.4-1.1,2.9l0,0c-1.1,0.5-2.4-0.1-2.8-1.2l-0.6-1.7c-6.3-17.4-26.6-25.3-43-16.6    l0,0c-9.7,5.1-17.6,13-22.7,22.7l0,0c-8.7,16.4-0.9,36.7,16.6,43l1.6,0.6c1.1,0.4,1.7,1.6,1.4,2.7c0,0.1,0,0.1-0.1,0.2    c-0.4,1.1-1.7,1.7-2.8,1.1L44.5,99c-16.8-7.9-36.7,0.9-42.1,18.7l0,0c-3.2,10.5-3.2,21.7,0,32.1l0,0c5.4,17.7,25.3,26.5,42.1,18.7    l1.7-0.8c1.1-0.5,2.4,0,2.8,1.1c0,0,0,0,0,0.1c0.5,1.1-0.1,2.4-1.2,2.8l-1.7,0.6c-17.4,6.3-25.3,26.6-16.6,43l0,0    c5.1,9.7,13,17.6,22.7,22.7l0,0c16.4,8.7,36.7,0.9,43-16.6l0.6-1.7c0.4-1.1,1.7-1.7,2.8-1.2l0,0c1.1,0.5,1.6,1.7,1.1,2.8l-0.8,1.7    c-7.9,16.8,0.9,36.7,18.7,42.1l0,0c10.5,3.2,21.7,3.2,32.1,0l0,0c17.7-5.4,26.5-25.3,18.7-42.1l-0.8-1.7c-0.5-1.1,0-2.4,1.1-2.8    l0,0c1.1-0.5,2.4,0.1,2.8,1.2l0.6,1.7c6.3,17.4,26.6,25.3,43,16.6l0,0c9.7-5.1,17.6-13,22.7-22.7l0,0c8.7-16.4,0.9-36.7-16.6-43    l-1.6-0.6c-1.1-0.4-1.7-1.6-1.4-2.7v-0.1c0.5-1.2,1.7-1.7,2.9-1.2l1.7,0.8c16.8,7.9,36.7-0.9,42.1-18.7l0,0    C268.3,139.3,268.3,128.1,265.1,117.6L265.1,117.6z M212.5,140.4c0.1,2-0.6,3-2.4,3.7c-6.1,2.5-12.2,5.1-18.3,7.7    c-4.2,1.8-5.8,5.5-4,9.7c2.6,6.1,5.1,12.3,7.7,18.4c0.6,1.5,0.7,2.6-0.6,3.8c-3.8,3.7-7.6,7.4-11.2,11.2c-1.2,1.3-2.3,1.3-3.8,0.6    c-6.2-2.7-12.4-5.3-18.6-7.9c-3.6-1.5-7.7,0.2-9.3,3.9c-2.6,6.2-5.3,12.4-7.7,18.7c-0.7,1.8-1.7,2.5-3.7,2.4    c-4.9-0.1-9.7-0.1-14.6,0c-1.9,0-3-0.6-3.7-2.4c-2.5-6.2-5.1-12.3-7.6-18.4c-1.8-4.2-5.5-5.8-9.6-4.1c-6.1,2.6-12.2,5.1-18.3,7.8    c-1.7,0.8-2.8,0.5-4-0.8c-3.4-3.6-6.9-7.2-10.6-10.6c-1.5-1.4-1.8-2.6-1-4.6c2.7-6.1,5.2-12.2,7.8-18.3c1.5-3.6-0.2-7.7-3.9-9.3    c-6.2-2.6-12.4-5.3-18.6-7.8c-1.8-0.7-2.5-1.8-2.4-3.7c0.1-4.9,0.1-9.8,0-14.7c0-1.9,0.6-3,2.4-3.7c6.1-2.5,12.2-5.1,18.3-7.7    c4.2-1.8,5.8-5.6,4.1-9.7c-2.5-6-5-12.1-7.6-18.1c-0.9-1.9-0.6-3.1,0.9-4.6c3.6-3.3,7-6.8,10.3-10.4c1.4-1.6,2.6-1.8,4.6-0.9    c6,2.7,12,5.1,18,7.6c3.9,1.7,8,0,9.7-4.1c2.5-6,5.1-12,7.5-18.1c0.8-2.1,2-2.8,4.2-2.7c4.9,0.2,9.7,0.1,14.6,0    c1.7,0,2.6,0.5,3.2,2.2c2.5,6.4,5.2,12.6,7.9,19c1.6,3.8,5.6,5.5,9.3,3.9c6.2-2.6,12.4-5.3,18.6-7.8c1-0.4,2.8-0.3,3.5,0.4    c4,3.7,7.8,7.7,11.7,11.6c0.5,0.5,0.8,1.1,1.2,1.6c-0.4,1-0.7,1.8-1,2.5c-2.5,5.9-5,11.9-7.5,17.8c-1.7,4,0,8,4.1,9.7    c6,2.5,12,5.2,18,7.5c2.1,0.8,2.8,2,2.7,4.2C212.3,130.8,212.3,135.6,212.5,140.4z"></path>
		<path class="st0" d="M133.8,106.9c-14.7,0-26.7,12-26.8,26.8c0,14.8,11.9,26.8,26.7,26.8s26.8-11.9,26.8-26.7    C160.5,119,148.5,106.9,133.8,106.9z"></path>
	</g>
</g>
<g>
	<path class="st0" d="M1705.1,53.8h19.2v3h-7.9v22.8h-3.3V56.8h-7.9L1705.1,53.8L1705.1,53.8z"></path>
	<path class="st0" d="M1738,79.6l-5.9-17.7c-0.5-1.4-1.3-4.3-1.3-4.3l0,0c0,0,0,3.1,0,5.4v16.6h-3.2V53.8h4.8l5.9,17.6   c0.6,1.7,1.1,3.4,1.3,4c0.2-0.6,0.6-2.2,1.1-4l5.7-17.5h4.9v25.8h-3.2V62.8c0-2.2,0-5.5,0-5.5l0,0c0,0-0.7,2.9-1.2,4.4l-5.7,18   h-3.2V79.6z"></path>
</g>
</svg>
