<?xml version="1.0" encoding="UTF-8"?>
<svg width="1488px" height="850px" viewBox="0 0 1488 850" version="1.1" xmlns="http://www.w3.org/2000/svg" xmlns:xlink="http://www.w3.org/1999/xlink">
    <!-- Generator: Sketch 44.1 (41455) - http://www.bohemiancoding.com/sketch -->
    <title>circles</title>
    <desc>Created with Sketch.</desc>
    <defs></defs>
    <g id="Text-Hierarchy" stroke="none" stroke-width="1" fill="none" fill-rule="evenodd">
        <g id="email-analytics" transform="translate(0.000000, -866.000000)" stroke-width="2">
            <g id="section-insights" transform="translate(-236.000000, 866.000000)">
                <g id="analytics">
                    <g id="circles">
                        <path d="M50.8203125,862.367188 C50.8203125,862.367188 215.277344,752.070313 335.984375,752.070313 C456.691406,752.070313 616.578992,847.389989 878.398438,773.664063 C1140.21788,699.938136 1069.09375,602.625 1251.45312,619.21875 C1433.8125,635.8125 1389.60937,752.070313 1531.52344,752.070313 C1673.4375,752.070313 2030.80469,635.8125 2030.80469,635.8125" id="Path-3" stroke="#509CF6"></path>
                        <path d="M0.3515625,914.3125 C18.0703125,914.3125 46.3671875,875.640625 134.414062,875.640625 C222.460937,875.640625 278.65625,816.78125 397.835937,755.039062 C517.015625,693.296875 582.515625,780.808594 711.898437,755.039062 C841.28125,729.269531 882.371094,511.449219 1073.57031,511.449219 C1264.76953,511.449219 1196.91797,507.789063 1307.96094,511.449219 C1419.00391,515.109375 1590.71094,0.69921875 1590.71094,0.69921875" id="Path-4" stroke="#10CC72" stroke-linejoin="round"></path>
                        <circle id="Oval-3" stroke="#10CC72" fill="#FFFFFF" cx="530" cy="737" r="7"></circle>
                        <circle id="Oval-3-Copy-2" stroke="#10CC72" fill="#FFFFFF" cx="720" cy="753" r="7"></circle>
                        <circle id="Oval-3-Copy-4" stroke="#10CC72" fill="#FFFFFF" cx="324" cy="797" r="7"></circle>
                        <circle id="Oval-3-Copy-6" stroke="#10CC72" fill="#FFFFFF" cx="895" cy="596" r="7"></circle>
                        <circle id="Oval-3-Copy-8" stroke="#10CC72" fill="#FFFFFF" cx="1559" cy="91" r="7"></circle>
                        <circle id="Oval-3-Copy" stroke="#509CF6" fill="#FFFFFF" cx="530" cy="785" r="7"></circle>
                        <circle id="Oval-3-Copy-3" stroke="#509CF6" fill="#FFFFFF" cx="720" cy="800" r="7"></circle>
                        <circle id="Oval-3-Copy-5" stroke="#509CF6" fill="#FFFFFF" cx="324" cy="752" r="7"></circle>
                        <circle id="Oval-3-Copy-7" stroke="#509CF6" fill="#FFFFFF" cx="895" cy="768" r="7"></circle>
                    </g>
                </g>
            </g>
        </g>
    </g>
</svg>